<svg width="1602" height="690" viewBox="0 0 1602 690" fill="none" xmlns="http://www.w3.org/2000/svg">
<rect width="1602" height="690" fill="white"/>
<g filter="url(#filter0_f_0_1)">
<mask id="mask0_0_1" style="mask-type:alpha" maskUnits="userSpaceOnUse" x="50" y="50" width="1502" height="590">
<rect x="50" y="50" width="1502" height="590" rx="220" fill="black"/>
</mask>
<g mask="url(#mask0_0_1)">
<g filter="url(#filter1_f_0_1)">
<path d="M1497.21 31.0353C1558.27 39.7449 1616.53 55.0193 1637.84 80.2594C1659.18 105.529 1635.8 132.316 1601.98 155.13C1567.52 178.379 1520.52 200.633 1455.01 203.588C1389.64 206.538 1332.39 188.937 1286.71 169.353C1242.14 150.25 1207.79 126.445 1213.32 99.9869C1219.02 72.7037 1257.9 48.0609 1314.95 34.2034C1370.13 20.8012 1436.73 22.4079 1497.21 31.0353Z" fill="#6842FF"/>
<path d="M1034.52 1.51905C1180.07 17.5722 1299.31 56.4554 1345.93 106.662C1390.4 154.551 1338.76 204.265 1262.61 247.142C1187.11 289.657 1083.18 329.69 939.629 335.437C797.8 341.115 676.06 308.659 572.418 274.775C466.952 240.294 364.103 199.803 371.631 149.739C379.478 97.5579 482.817 53.8971 609.905 25.4808C736.532 -2.83257 890.797 -14.3336 1034.52 1.51905Z" fill="#4D36D0"/>
<path d="M1515.52 395.174C1458.74 412.64 1400.53 417.393 1356.82 400.843C1311.68 383.753 1286.5 349.995 1287.58 308.876C1288.72 265.598 1310.85 216.776 1362.58 181.97C1413.17 147.924 1478.74 139.688 1536.38 141.458C1589.83 143.1 1632.78 160.35 1656.24 190.991C1680.94 223.238 1691.81 264.745 1662.91 306.682C1634.04 348.57 1574.36 377.073 1515.52 395.174Z" fill="#2CC0FF"/>
<path d="M1433.79 342.296C1567.31 360.884 1632.4 414.294 1674.62 465.605C1716.03 515.931 1737.66 572.271 1658.8 615.755C1581.06 658.625 1434.78 669.905 1297.51 673.56C1164.27 677.107 1028.46 669.424 930.481 635.147C824.839 598.188 753.708 545.045 776.744 491.368C799.251 438.926 920.485 404.773 1041.09 377.41C1162.4 349.887 1301 323.81 1433.79 342.296Z" fill="#00B1FD"/>
<path d="M1314.36 341.228C1258.59 366.775 1197.01 382.739 1144.64 385.034C1089.85 387.436 1045.24 378.291 1035.65 353.444C1025.9 328.21 1050.71 292.606 1096.26 259.751C1139.49 228.568 1201.34 204.665 1261.01 190.895C1317.35 177.896 1365.54 178.6 1397.97 190.131C1431.29 201.977 1450.59 222.626 1434.09 252.433C1417.2 282.969 1370.24 315.63 1314.36 341.228Z" fill="#2C80FF"/>
<path d="M425.405 13.3927C528.967 24.1919 624.677 50.6716 675.368 96.0092C725.709 141.034 718.853 194.318 681.236 242.207C642.096 292.033 576.756 339.767 471.899 355.03C366.094 370.431 257.401 347.87 166.809 317.087C75.0495 285.907 -3.81732 243.697 -15.3704 189.455C-27.5523 132.261 15.8719 73.1915 107.1 36.7514C194.425 1.87052 315.015 1.88147 425.405 13.3927Z" fill="#0074FD"/>
<path d="M844.52 547.247C961.466 535.85 1062.69 509.428 1117.95 469.792C1175.4 428.592 1193.5 379.168 1136.42 337.9C1080.39 297.389 960.933 276.217 839.351 268.376C725.494 261.034 609.9 271.46 519.813 298.136C429.73 324.811 378.307 364.172 372.261 406.688C365.709 452.763 389.225 502.32 486.653 531.318C584.981 560.583 722.309 559.158 844.52 547.247Z" fill="#8707FF"/>
<path d="M840.473 450.499C945.952 472.842 1028.29 508.649 1041.66 551.697C1054.82 594.078 995.963 634.78 906.652 663.607C823.282 690.517 709.493 698.922 596.807 695.284C482.504 691.593 366.874 677.816 303.592 644.137C239.547 610.052 246.443 566.748 282.265 527.884C318.733 488.321 385.425 451.249 495.445 435.997C608.816 420.28 736.083 428.387 840.473 450.499Z" fill="#7D92FF"/>
<path d="M311.11 255.821C384.997 284.808 458.184 323.822 480.548 389.883C503.715 458.318 475.814 531.306 423.216 586.974C371.801 641.391 294.377 672.274 211.882 674.231C128.292 676.215 42.7604 652.996 -8.36762 597.216C-57.811 543.274 -51.521 471.041 -35.6277 404.203C-19.5103 336.423 5.3207 263.424 78.4455 232.131C151.731 200.769 236.597 226.588 311.11 255.821Z" fill="#6000DB"/>
</g>
</g>
</g>
<path d="M443.1 359.3L429.6 319.4C428.6 316.867 427.533 313.9 426.4 310.5C425.267 307.033 424.133 303.3 423 299.3C422 303.367 420.933 307.133 419.8 310.6C418.667 314.067 417.6 317.067 416.6 319.6L403.2 359.3H443.1ZM496.8 415H470.6C467.667 415 465.3 414.333 463.5 413C461.7 411.6 460.333 409.833 459.4 407.7L450.8 382.3H395.4L386.8 407.7C386.067 409.567 384.733 411.267 382.8 412.8C380.933 414.267 378.6 415 375.8 415H349.4L405.8 269.3H440.4L496.8 415ZM535.688 386.8C538.021 389.333 540.554 391.133 543.288 392.2C546.021 393.267 548.788 393.8 551.588 393.8C554.521 393.8 557.221 393.267 559.688 392.2C562.154 391.067 564.254 389.267 565.988 386.8C567.788 384.267 569.188 380.967 570.188 376.9C571.188 372.767 571.688 367.7 571.688 361.7C571.688 356.5 571.288 352.1 570.488 348.5C569.754 344.833 568.621 341.867 567.088 339.6C565.621 337.267 563.754 335.6 561.488 334.6C559.288 333.533 556.754 333 553.888 333C550.088 333 546.788 333.833 543.988 335.5C541.188 337.167 538.421 339.6 535.688 342.8V386.8ZM535.688 322.3C539.688 318.5 544.054 315.467 548.788 313.2C553.588 310.867 558.921 309.7 564.788 309.7C570.654 309.7 575.988 310.9 580.788 313.3C585.588 315.7 589.688 319.133 593.088 323.6C596.488 328 599.088 333.333 600.888 339.6C602.754 345.867 603.688 352.867 603.688 360.6C603.688 369 602.621 376.633 600.488 383.5C598.354 390.367 595.321 396.267 591.388 401.2C587.521 406.067 582.888 409.867 577.488 412.6C572.088 415.267 566.121 416.6 559.588 416.6C556.454 416.6 553.654 416.3 551.188 415.7C548.721 415.1 546.454 414.267 544.388 413.2C542.321 412.067 540.421 410.733 538.688 409.2C537.021 407.667 535.388 406 533.788 404.2L532.688 409.4C532.154 411.533 531.288 413 530.088 413.8C528.888 414.6 527.288 415 525.288 415H504.688V265.3H535.688V322.3ZM667.331 309.7C675.198 309.7 682.365 310.933 688.831 313.4C695.298 315.867 700.831 319.4 705.431 324C710.098 328.6 713.698 334.2 716.231 340.8C718.831 347.333 720.131 354.7 720.131 362.9C720.131 371.167 718.831 378.633 716.231 385.3C713.698 391.9 710.098 397.533 705.431 402.2C700.831 406.8 695.298 410.367 688.831 412.9C682.365 415.367 675.198 416.6 667.331 416.6C659.398 416.6 652.165 415.367 645.631 412.9C639.165 410.367 633.565 406.8 628.831 402.2C624.165 397.533 620.531 391.9 617.931 385.3C615.398 378.633 614.131 371.167 614.131 362.9C614.131 354.7 615.398 347.333 617.931 340.8C620.531 334.2 624.165 328.6 628.831 324C633.565 319.4 639.165 315.867 645.631 313.4C652.165 310.933 659.398 309.7 667.331 309.7ZM667.331 393.6C674.465 393.6 679.698 391.1 683.031 386.1C686.431 381.033 688.131 373.367 688.131 363.1C688.131 352.833 686.431 345.2 683.031 340.2C679.698 335.2 674.465 332.7 667.331 332.7C659.998 332.7 654.631 335.2 651.231 340.2C647.831 345.2 646.131 352.833 646.131 363.1C646.131 373.367 647.831 381.033 651.231 386.1C654.631 391.1 659.998 393.6 667.331 393.6ZM828.742 311.3V415H809.542C805.676 415 803.142 413.267 801.942 409.8L800.142 403.8C798.142 405.733 796.076 407.5 793.942 409.1C791.809 410.633 789.509 411.967 787.042 413.1C784.642 414.167 782.009 415 779.142 415.6C776.342 416.267 773.276 416.6 769.942 416.6C764.276 416.6 759.242 415.633 754.842 413.7C750.509 411.7 746.842 408.933 743.842 405.4C740.842 401.867 738.576 397.7 737.042 392.9C735.509 388.1 734.742 382.833 734.742 377.1V311.3H765.742V377.1C765.742 382.233 766.909 386.2 769.242 389C771.576 391.8 775.009 393.2 779.542 393.2C782.942 393.2 786.109 392.5 789.042 391.1C792.042 389.633 794.942 387.667 797.742 385.2V311.3H828.742ZM886.905 416.6C881.971 416.6 877.605 415.9 873.805 414.5C870.071 413.033 866.905 411 864.305 408.4C861.771 405.733 859.838 402.533 858.505 398.8C857.171 395.067 856.505 390.9 856.505 386.3V332.7H847.705C846.105 332.7 844.738 332.2 843.605 331.2C842.471 330.133 841.905 328.6 841.905 326.6V314.5L858.405 311.3L864.505 286C865.305 282.8 867.571 281.2 871.305 281.2H887.505V311.5H913.205V332.7H887.505V384.2C887.505 386.6 888.071 388.6 889.205 390.2C890.405 391.733 892.105 392.5 894.305 392.5C895.438 392.5 896.371 392.4 897.105 392.2C897.905 391.933 898.571 391.667 899.105 391.4C899.705 391.067 900.238 390.8 900.705 390.6C901.238 390.333 901.838 390.2 902.505 390.2C903.438 390.2 904.171 390.433 904.705 390.9C905.305 391.3 905.905 391.967 906.505 392.9L915.905 407.6C911.905 410.6 907.405 412.867 902.405 414.4C897.405 415.867 892.238 416.6 886.905 416.6ZM972.852 415V311.3H992.052C995.918 311.3 998.452 313.033 999.652 316.5L1001.35 322.1C1003.08 320.3 1004.88 318.667 1006.75 317.2C1008.62 315.667 1010.62 314.367 1012.75 313.3C1014.95 312.167 1017.28 311.3 1019.75 310.7C1022.28 310.033 1025.05 309.7 1028.05 309.7C1034.32 309.7 1039.48 311.333 1043.55 314.6C1047.68 317.8 1050.82 322.1 1052.95 327.5C1054.68 324.3 1056.78 321.567 1059.25 319.3C1061.78 317.033 1064.48 315.2 1067.35 313.8C1070.28 312.4 1073.35 311.367 1076.55 310.7C1079.82 310.033 1083.05 309.7 1086.25 309.7C1092.18 309.7 1097.45 310.6 1102.05 312.4C1106.65 314.133 1110.48 316.7 1113.55 320.1C1116.68 323.433 1119.05 327.567 1120.65 332.5C1122.25 337.367 1123.05 342.9 1123.05 349.1V415H1092.05V349.1C1092.05 338.367 1087.45 333 1078.25 333C1074.05 333 1070.55 334.4 1067.75 337.2C1065.02 339.933 1063.65 343.9 1063.65 349.1V415H1032.65V349.1C1032.65 343.167 1031.48 339 1029.15 336.6C1026.82 334.2 1023.38 333 1018.85 333C1016.05 333 1013.38 333.633 1010.85 334.9C1008.38 336.167 1006.05 337.867 1003.85 340V415H972.852ZM1207.47 350.7C1207.47 348.233 1207.14 345.833 1206.47 343.5C1205.87 341.167 1204.84 339.1 1203.37 337.3C1201.97 335.433 1200.1 333.933 1197.77 332.8C1195.44 331.667 1192.6 331.1 1189.27 331.1C1183.4 331.1 1178.8 332.8 1175.47 336.2C1172.14 339.533 1169.94 344.367 1168.87 350.7H1207.47ZM1168.47 368.7C1169.47 377.367 1172.1 383.667 1176.37 387.6C1180.64 391.467 1186.14 393.4 1192.87 393.4C1196.47 393.4 1199.57 392.967 1202.17 392.1C1204.77 391.233 1207.07 390.267 1209.07 389.2C1211.14 388.133 1213 387.167 1214.67 386.3C1216.4 385.433 1218.2 385 1220.07 385C1222.54 385 1224.4 385.9 1225.67 387.7L1234.67 398.8C1231.47 402.467 1228 405.467 1224.27 407.8C1220.6 410.067 1216.8 411.867 1212.87 413.2C1209 414.467 1205.1 415.333 1201.17 415.8C1197.3 416.333 1193.6 416.6 1190.07 416.6C1182.8 416.6 1175.97 415.433 1169.57 413.1C1163.24 410.7 1157.67 407.167 1152.87 402.5C1148.14 397.833 1144.37 392.033 1141.57 385.1C1138.84 378.167 1137.47 370.1 1137.47 360.9C1137.47 353.967 1138.64 347.4 1140.97 341.2C1143.37 335 1146.77 329.567 1151.17 324.9C1155.64 320.233 1161 316.533 1167.27 313.8C1173.6 311.067 1180.74 309.7 1188.67 309.7C1195.54 309.7 1201.8 310.767 1207.47 312.9C1213.2 315.033 1218.1 318.133 1222.17 322.2C1226.3 326.267 1229.5 331.267 1231.77 337.2C1234.1 343.067 1235.27 349.733 1235.27 357.2C1235.27 359.533 1235.17 361.433 1234.97 362.9C1234.77 364.367 1234.4 365.533 1233.87 366.4C1233.34 367.267 1232.6 367.867 1231.67 368.2C1230.8 368.533 1229.67 368.7 1228.27 368.7H1168.47Z" fill="white"/>
<defs>
<filter id="filter0_f_0_1" x="0" y="0" width="1602" height="690" filterUnits="userSpaceOnUse" color-interpolation-filters="sRGB">
<feFlood flood-opacity="0" result="BackgroundImageFix"/>
<feBlend mode="normal" in="SourceGraphic" in2="BackgroundImageFix" result="shape"/>
<feGaussianBlur stdDeviation="25" result="effect1_foregroundBlur_0_1"/>
</filter>
<filter id="filter1_f_0_1" x="-347.156" y="-305.652" width="2358.99" height="1301.74" filterUnits="userSpaceOnUse" color-interpolation-filters="sRGB">
<feFlood flood-opacity="0" result="BackgroundImageFix"/>
<feBlend mode="normal" in="SourceGraphic" in2="BackgroundImageFix" result="shape"/>
<feGaussianBlur stdDeviation="150" result="effect1_foregroundBlur_0_1"/>
</filter>
</defs>
</svg>
