<svg width="3088" height="2908" viewBox="0 0 3088 2908" fill="none" xmlns="http://www.w3.org/2000/svg">
<rect width="3088" height="2908" fill="white"/>
<mask id="mask0_0_1" style="mask-type:alpha" maskUnits="userSpaceOnUse" x="4" y="4" width="3080" height="2900">
<rect x="4" y="4" width="3080" height="2900" fill="black"/>
</mask>
<g mask="url(#mask0_0_1)">
<g filter="url(#filter0_f_0_1)">
<path d="M2971.65 -89.2163C3096.86 -46.4067 3216.33 28.6711 3260.03 152.733C3303.78 276.937 3255.85 408.602 3186.49 520.74C3115.82 635.015 3019.44 744.401 2885.12 758.926C2751.06 773.423 2633.68 686.909 2539.99 590.649C2448.61 496.755 2378.17 379.749 2389.51 249.698C2401.2 115.594 2480.91 -5.5314 2597.91 -73.6443C2711.06 -139.519 2847.62 -131.622 2971.65 -89.2163Z" fill="#4052B7"/>
<path d="M2022.86 -234.296C2321.32 -155.391 2565.83 35.7301 2661.43 282.51C2752.62 517.896 2646.74 762.251 2490.58 973.004C2335.75 1181.97 2122.64 1378.75 1828.27 1406.99C1537.44 1434.9 1287.8 1275.37 1075.27 1108.82C859.001 939.345 648.099 740.318 663.536 494.245C679.627 237.759 891.534 23.1553 1152.14 -116.518C1411.8 -255.686 1728.14 -312.216 2022.86 -234.296Z" fill="#3B65B6"/>
<path d="M3009.19 1700.62C2892.76 1786.47 2773.4 1809.83 2683.76 1728.48C2591.19 1644.48 2539.56 1478.55 2541.78 1276.44C2544.12 1063.72 2589.5 823.748 2695.57 652.668C2799.32 485.322 2933.77 444.838 3051.97 453.541C3161.56 461.611 3249.64 546.398 3297.76 697.008C3348.4 855.509 3370.7 1059.53 3311.43 1265.66C3252.23 1471.55 3129.85 1611.64 3009.19 1700.62Z" fill="#4052B7"/>
<path d="M2841.6 1440.71C3115.4 1532.08 3248.87 1794.6 3335.45 2046.81C3420.37 2294.17 3464.7 2571.1 3303.01 2784.83C3143.59 2995.55 2843.63 3050.99 2562.14 3068.95C2288.92 3086.39 2010.42 3048.63 1809.51 2880.15C1592.88 2698.48 1447.02 2437.27 1494.26 2173.43C1540.41 1915.67 1789.02 1747.8 2036.33 1613.3C2285.09 1478.02 2569.3 1349.85 2841.6 1440.71Z" fill="#1E9AAB"/>
<path d="M2596.7 1435.46C2482.34 1561.03 2356.05 1639.5 2248.66 1650.78C2136.31 1662.58 2044.84 1617.63 2025.16 1495.51C2005.18 1371.47 2056.05 1196.47 2149.46 1034.98C2238.12 881.707 2364.93 764.216 2487.3 696.534C2602.82 632.641 2701.65 636.101 2768.15 692.777C2836.47 751.004 2876.05 852.499 2842.22 999.008C2807.57 1149.1 2711.28 1309.64 2596.7 1435.46Z" fill="#3C8AAC"/>
<path d="M773.806 -175.934C986.169 -122.853 1182.43 7.30125 1286.38 230.147C1389.61 451.457 1375.55 713.36 1298.41 948.744C1218.15 1193.65 1084.17 1428.28 869.147 1503.3C652.181 1579 429.295 1468.11 243.529 1316.8C55.3665 1163.54 -106.358 956.072 -130.049 689.459C-155.029 408.333 -65.9832 117.992 121.09 -61.1204C300.158 -232.569 547.44 -232.515 773.806 -175.934Z" fill="#3C8AAC"/>
<path d="M1633.24 2448.1C1873.05 2392.08 2080.61 2262.21 2193.94 2067.38C2311.74 1864.88 2348.87 1621.94 2231.81 1419.1C2116.91 1219.98 1871.96 1115.91 1622.64 1077.37C1389.17 1041.28 1152.13 1092.53 967.398 1223.65C782.674 1354.77 677.227 1548.24 664.829 1757.21C651.393 1983.68 699.615 2227.27 899.4 2369.8C1101.03 2513.65 1382.64 2506.64 1633.24 2448.1Z" fill="#4772B2"/>
<path d="M1624.94 1972.55C1841.24 2082.37 2010.09 2258.38 2037.5 2469.97C2064.49 2678.28 1943.79 2878.34 1760.65 3020.03C1589.69 3152.3 1356.36 3193.62 1125.28 3175.73C890.892 3157.59 653.782 3089.87 524.016 2924.33C392.686 2756.8 406.826 2543.95 480.283 2352.92C555.063 2158.46 691.822 1976.24 917.429 1901.27C1149.91 1824.02 1410.88 1863.87 1624.94 1972.55Z" fill="#3B65B6"/>
<path d="M539.432 1015.66C690.944 1158.14 841.022 1349.91 886.881 1674.61C934.388 2010.99 877.174 2369.74 769.317 2643.37C663.885 2910.84 505.119 3062.63 335.955 3072.25C164.545 3082 -10.8455 2967.88 -115.689 2693.71C-217.077 2428.57 -204.179 2073.52 -171.588 1745C-138.538 1411.84 -87.6193 1053.03 62.3304 899.218C212.609 745.068 386.635 871.973 539.432 1015.66Z" fill="#4052B7"/>
</g>
</g>
<defs>
<filter id="filter0_f_0_1" x="-495.228" y="-569.545" width="4206.99" height="4049.23" filterUnits="userSpaceOnUse" color-interpolation-filters="sRGB">
<feFlood flood-opacity="0" result="BackgroundImageFix"/>
<feBlend mode="normal" in="SourceGraphic" in2="BackgroundImageFix" result="shape"/>
<feGaussianBlur stdDeviation="150" result="effect1_foregroundBlur_0_1"/>
</filter>
</defs>
</svg>
