<svg width="1925" height="1365" viewBox="0 0 1925 1365" fill="none" xmlns="http://www.w3.org/2000/svg">
<rect width="1925" height="1365" fill="white"/>
<mask id="mask0_0_1" style="mask-type:alpha" maskUnits="userSpaceOnUse" x="4" y="4" width="1917" height="1357">
<rect x="4" y="4" width="1917" height="1357" fill="black"/>
</mask>
<g mask="url(#mask0_0_1)">
<g filter="url(#filter0_f_0_1)">
<path d="M1851.07 -39.6188C1929.01 -19.5868 2003.36 15.5444 2030.56 73.5966C2057.79 131.716 2027.96 193.326 1984.79 245.799C1940.8 299.272 1880.82 350.457 1797.22 357.253C1713.78 364.037 1640.72 323.554 1582.41 278.511C1525.53 234.575 1481.69 179.825 1488.75 118.97C1496.02 56.2184 1545.64 -0.460026 1618.45 -32.3322C1688.88 -63.1572 1773.88 -59.4619 1851.07 -39.6188Z" fill="#4052B7"/>
<path d="M1260.55 -107.506C1446.3 -70.584 1598.49 18.8475 1657.99 134.323C1714.75 244.468 1648.85 358.809 1551.66 457.427C1455.29 555.211 1322.65 647.286 1139.43 660.505C958.416 673.565 803.04 598.915 670.761 520.982C536.155 441.677 404.889 348.546 414.497 233.401C424.512 113.383 556.404 12.9633 718.605 -52.3941C880.22 -117.515 1077.11 -143.967 1260.55 -107.506Z" fill="#3B65B6"/>
<path d="M1874.44 797.9C1801.97 838.073 1727.68 849.003 1671.89 810.939C1614.28 771.631 1582.14 693.987 1583.52 599.415C1584.98 499.875 1613.22 387.585 1679.24 307.532C1743.81 229.225 1827.5 210.282 1901.06 214.354C1969.28 218.13 2024.09 257.805 2054.04 328.28C2085.56 402.447 2099.44 497.914 2062.56 594.368C2025.71 690.712 1949.54 756.267 1874.44 797.9Z" fill="#4052B7"/>
<path d="M1770.13 676.282C1940.54 719.034 2023.62 841.877 2077.5 959.892C2130.35 1075.64 2157.95 1205.22 2057.31 1305.24C1958.09 1403.84 1771.39 1429.78 1596.19 1438.19C1426.14 1446.35 1252.8 1428.68 1127.76 1349.84C992.925 1264.83 902.141 1142.6 931.543 1019.15C960.267 898.53 1115 819.979 1268.93 757.042C1423.76 693.74 1600.65 633.764 1770.13 676.282Z" fill="#1E9AAB"/>
<path d="M1617.7 673.825C1546.53 732.583 1467.92 769.299 1401.08 774.578C1331.15 780.102 1274.22 759.068 1261.98 701.922C1249.54 643.883 1281.2 561.994 1339.34 486.427C1394.52 414.706 1473.45 359.729 1549.61 328.058C1621.51 298.161 1683.02 299.78 1724.41 326.3C1766.94 353.546 1791.57 401.039 1770.52 469.595C1748.95 539.829 1689.02 614.95 1617.7 673.825Z" fill="#3C8AAC"/>
<path d="M483.129 -80.1968C615.305 -55.3586 737.46 5.54477 802.156 109.821C866.406 213.379 857.657 335.932 809.645 446.075C759.691 560.676 676.298 670.464 542.47 705.569C407.43 740.992 268.705 689.102 153.084 618.301C35.9706 546.587 -64.687 449.504 -79.4322 324.747C-94.9799 193.2 -39.5577 57.3404 76.8769 -26.4718C188.329 -106.698 342.239 -106.673 483.129 -80.1968Z" fill="#3C8AAC"/>
<path d="M1018.04 1147.67C1167.3 1121.45 1296.49 1060.68 1367.03 969.521C1440.34 874.761 1463.45 761.086 1390.6 666.169C1319.08 572.996 1166.62 524.298 1011.45 506.265C866.132 489.377 718.599 513.358 603.621 574.713C488.649 636.065 423.018 726.597 415.302 824.383C406.939 930.354 436.953 1044.34 561.299 1111.03C686.795 1178.34 862.067 1175.06 1018.04 1147.67Z" fill="#4772B2"/>
<path d="M1012.88 925.147C1147.5 976.536 1252.59 1058.89 1269.66 1157.9C1286.45 1255.38 1211.33 1348.99 1097.34 1415.3C990.938 1477.19 845.71 1496.52 701.889 1488.15C556.004 1479.66 408.426 1447.98 327.659 1370.51C245.919 1292.12 254.72 1192.52 300.44 1103.13C346.983 1012.14 432.102 926.872 572.521 891.792C717.217 855.643 879.647 874.29 1012.88 925.147Z" fill="#3B65B6"/>
<path d="M337.254 477.387C431.556 544.058 524.965 633.791 553.507 785.731C583.076 943.132 547.466 1111 480.335 1239.04C414.714 1364.2 315.898 1435.23 210.61 1439.73C103.924 1444.29 -5.23988 1390.89 -70.4944 1262.6C-133.599 1138.53 -125.571 972.394 -105.286 818.667C-84.7158 662.772 -53.0241 494.874 40.305 422.9C133.839 350.769 242.153 410.151 337.254 477.387Z" fill="#4052B7"/>
</g>
</g>
<defs>
<filter id="filter0_f_0_1" x="-420" y="-424" width="2845" height="2214" filterUnits="userSpaceOnUse" color-interpolation-filters="sRGB">
<feFlood flood-opacity="0" result="BackgroundImageFix"/>
<feBlend mode="normal" in="SourceGraphic" in2="BackgroundImageFix" result="shape"/>
<feGaussianBlur stdDeviation="150" result="effect1_foregroundBlur_0_1"/>
</filter>
</defs>
</svg>
