<svg width="1329" height="679" viewBox="0 0 1329 679" fill="none" xmlns="http://www.w3.org/2000/svg">
<g clip-path="url(#clip0_0_1)">
<g style="mix-blend-mode:multiply">
<path d="M596.629 460.851C609.203 434.107 611.991 406.387 595.543 377.148C580.279 350.012 539.187 326.141 495.748 329.415C467.592 331.551 444.643 344.244 426.497 358.055C401.074 377.395 381.296 400.438 374.45 425.777C367.604 451.116 374.629 478.913 398.107 500.449C421.585 521.985 462.355 536.129 501.826 533.498C539.847 530.966 561.055 514.769 576.248 494.129C584.318 483.197 591.341 472.109 596.629 460.851Z" fill="#4361EE" fill-opacity="0.9"/>
</g>
<g style="mix-blend-mode:multiply">
<path d="M372.486 433.244C321.271 470.006 281.921 522.408 296.804 574.909C313.415 633.511 386.431 673.571 442.889 655.07C471.496 645.698 493.545 624.702 519.015 609.477C545.719 593.556 576.186 584.119 604.873 571.499C633.56 558.879 661.49 542.26 677.883 516.218C694.276 490.176 696.29 452.88 675.433 427.061C654.893 401.634 619.707 394.104 587.845 389.262C554.673 384.214 521.027 379.991 488.353 383.672C454.652 387.462 410.335 406.083 372.486 433.244Z" fill="url(#paint0_linear_0_1)"/>
</g>
<g style="mix-blend-mode:multiply">
<path d="M891.745 123.3C803.367 167.51 726.229 225.167 691.534 267.636C650.979 317.258 620.12 379.543 630.67 441.703C642.807 513.264 709.112 568.301 781.858 588.051C875.275 613.41 978.396 588.813 1059.04 536.93C1139.69 485.046 1199.99 408.358 1246.3 326.529C1283.31 261.113 1310.77 175.819 1264.07 116.398C1187.93 19.5552 1026.74 55.811 891.745 123.3Z" fill="url(#paint1_linear_0_1)"/>
</g>
<g style="mix-blend-mode:multiply">
<g style="mix-blend-mode:multiply">
<path d="M355.93 468.982C369.85 439.31 365.394 405.455 332.938 378.058C304.667 354.197 264.028 341.855 223.824 333.318C186.152 325.322 143.999 320.355 109.454 334.798C71.9132 350.485 54.0259 384.438 41.7325 416.277C27.8462 452.238 17.3754 488.94 10.4057 526.081C5.91279 550.004 6.22609 579.672 32.9058 591.75C51.4345 600.142 75.4684 595.772 94.0884 587.354C112.708 578.936 128.35 566.884 147.169 558.746C178.732 545.088 216.036 543.613 251.389 538.343C300.58 531.014 340.129 502.684 355.93 468.982Z" fill="url(#paint2_linear_0_1)"/>
</g>
<g style="mix-blend-mode:multiply">
<path d="M93.7476 485.358C79.1398 510.949 66.3784 543.056 76.5793 582.989C88.1595 620.709 119.748 651.76 145.119 658.206C170.491 664.651 190.335 651.796 206.217 634.746C225.434 614.268 240.771 586.707 251.326 553.687C258.499 531.07 263.348 504.888 258.582 473.893C253.816 442.898 237.413 406.284 215.37 387.456C185.849 362.224 159.457 377.431 144.761 401.56C133.109 420.678 121.818 440.046 109.948 459.093C105.05 466.99 99.2633 475.698 93.7476 485.358Z" fill="url(#paint3_linear_0_1)"/>
</g>
</g>
</g>
<g style="mix-blend-mode:multiply">
<path d="M650.015 317.442C620.395 384.222 601 468.211 683.418 516.048C725.482 540.465 781.608 545.056 831.592 542.531C944.321 536.824 1041.52 501.555 1127.31 458.403C1188.41 427.675 1314.19 377.407 1326.89 319.751C1352.74 202.39 1090.48 107.181 956.706 106.711C810.972 106.2 725.941 171.083 679.848 257.958C671.067 274.49 659.966 294.991 650.015 317.442Z" fill="url(#paint4_linear_0_1)"/>
</g>
<defs>
<linearGradient id="paint0_linear_0_1" x1="300.594" y1="585.776" x2="668.453" y2="408.262" gradientUnits="userSpaceOnUse">
<stop stop-color="#A3C4F3" stop-opacity="0.9"/>
<stop offset="0.229167" stop-color="#90DBF4" stop-opacity="0.9"/>
<stop offset="0.494792" stop-color="#8EECF5" stop-opacity="0.9"/>
<stop offset="0.75" stop-color="#98F5E1" stop-opacity="0.9"/>
<stop offset="0.99" stop-color="#5FDDC5" stop-opacity="0.9"/>
</linearGradient>
<linearGradient id="paint1_linear_0_1" x1="635.162" y1="462.106" x2="1297.99" y2="187.549" gradientUnits="userSpaceOnUse">
<stop stop-color="#EABFFA" stop-opacity="0.9"/>
<stop offset="0.17" stop-color="#DC93F6" stop-opacity="0.9"/>
<stop offset="0.46" stop-color="#CB5DF1" stop-opacity="0.9"/>
<stop offset="0.82" stop-color="#B333E9" stop-opacity="0.9"/>
<stop offset="0.99" stop-color="#9F21E3" stop-opacity="0.9"/>
</linearGradient>
<linearGradient id="paint2_linear_0_1" x1="276.012" y1="344.66" x2="126.214" y2="639" gradientUnits="userSpaceOnUse">
<stop stop-color="#CB84DE" stop-opacity="0.9"/>
<stop offset="0.16" stop-color="#C288E0" stop-opacity="0.9"/>
<stop offset="0.43" stop-color="#A892E7" stop-opacity="0.9"/>
<stop offset="0.77" stop-color="#7FA3F1" stop-opacity="0.9"/>
<stop offset="0.99" stop-color="#60B0F9"/>
<stop offset="0.9901" stop-color="#60B0F9" stop-opacity="0.9"/>
</linearGradient>
<linearGradient id="paint3_linear_0_1" x1="124.46" y1="652.933" x2="306.644" y2="486.44" gradientUnits="userSpaceOnUse">
<stop stop-color="#008000" stop-opacity="0.7"/>
<stop offset="0.234375" stop-color="#38B000" stop-opacity="0.7"/>
<stop offset="0.463542" stop-color="#70E000" stop-opacity="0.7"/>
<stop offset="0.671875" stop-color="#9EF01A" stop-opacity="0.7"/>
<stop offset="0.854167" stop-color="#CCFF33" stop-opacity="0.7"/>
</linearGradient>
<linearGradient id="paint4_linear_0_1" x1="607.66" y1="444.952" x2="1072.7" y2="0.42692" gradientUnits="userSpaceOnUse">
<stop stop-color="#FFAA00" stop-opacity="0.9"/>
<stop offset="0.208333" stop-color="#FFA200" stop-opacity="0.9"/>
<stop offset="0.40625" stop-color="#FF9500" stop-opacity="0.9"/>
<stop offset="0.6" stop-color="#FF9500" stop-opacity="0.9"/>
<stop offset="0.802083" stop-color="#FF8800" stop-opacity="0.9"/>
<stop offset="0.99" stop-color="#FF7B00" stop-opacity="0.9"/>
</linearGradient>
<clipPath id="clip0_0_1">
<rect width="1292" height="678.12" fill="white"/>
</clipPath>
</defs>
</svg>
