<svg width="1602" height="690" viewBox="0 0 1602 690" fill="none" xmlns="http://www.w3.org/2000/svg">
<rect width="1602" height="690" fill="white"/>
<g filter="url(#filter0_f_0_1)">
<mask id="mask0_0_1" style="mask-type:alpha" maskUnits="userSpaceOnUse" x="50" y="50" width="1502" height="590">
<rect x="50" y="50" width="1502" height="590" rx="220" fill="black"/>
</mask>
<g mask="url(#mask0_0_1)">
<g filter="url(#filter1_f_0_1)">
<path d="M1497.21 31.0353C1558.27 39.7449 1616.53 55.0193 1637.84 80.2594C1659.18 105.529 1635.8 132.316 1601.98 155.13C1567.52 178.379 1520.52 200.633 1455.01 203.588C1389.64 206.538 1332.39 188.937 1286.71 169.353C1242.14 150.25 1207.79 126.445 1213.32 99.9869C1219.02 72.7037 1257.9 48.0609 1314.95 34.2034C1370.13 20.8012 1436.73 22.4079 1497.21 31.0353Z" fill="#6842FF"/>
<path d="M1034.52 1.51905C1180.07 17.5722 1299.31 56.4554 1345.93 106.662C1390.4 154.551 1338.76 204.265 1262.61 247.142C1187.11 289.657 1083.18 329.69 939.629 335.437C797.8 341.115 676.06 308.659 572.418 274.775C466.952 240.294 364.103 199.803 371.631 149.739C379.478 97.5579 482.817 53.8971 609.905 25.4808C736.532 -2.83257 890.797 -14.3336 1034.52 1.51905Z" fill="#4D36D0"/>
<path d="M1515.52 395.174C1458.74 412.64 1400.53 417.393 1356.82 400.843C1311.68 383.753 1286.5 349.995 1287.58 308.876C1288.72 265.598 1310.85 216.776 1362.58 181.97C1413.17 147.924 1478.74 139.688 1536.38 141.458C1589.83 143.1 1632.78 160.35 1656.24 190.991C1680.94 223.238 1691.81 264.745 1662.91 306.682C1634.04 348.57 1574.36 377.073 1515.52 395.174Z" fill="#2CC0FF"/>
<path d="M1433.79 342.296C1567.31 360.884 1632.4 414.294 1674.62 465.605C1716.03 515.931 1737.66 572.271 1658.8 615.755C1581.06 658.625 1434.78 669.905 1297.51 673.56C1164.27 677.107 1028.46 669.424 930.481 635.147C824.839 598.188 753.708 545.045 776.744 491.368C799.251 438.926 920.485 404.773 1041.09 377.41C1162.4 349.887 1301 323.81 1433.79 342.296Z" fill="#00B1FD"/>
<path d="M1314.36 341.228C1258.59 366.775 1197.01 382.739 1144.64 385.034C1089.85 387.436 1045.24 378.291 1035.65 353.444C1025.9 328.21 1050.71 292.606 1096.26 259.751C1139.49 228.568 1201.34 204.665 1261.01 190.895C1317.35 177.896 1365.54 178.6 1397.97 190.131C1431.29 201.977 1450.59 222.626 1434.09 252.433C1417.2 282.969 1370.24 315.63 1314.36 341.228Z" fill="#2C80FF"/>
<path d="M425.405 13.3927C528.967 24.1919 624.677 50.6716 675.368 96.0092C725.709 141.034 718.853 194.318 681.236 242.207C642.096 292.033 576.756 339.767 471.899 355.03C366.094 370.431 257.401 347.87 166.809 317.087C75.0495 285.907 -3.81732 243.697 -15.3704 189.455C-27.5523 132.261 15.8719 73.1915 107.1 36.7514C194.425 1.87052 315.015 1.88147 425.405 13.3927Z" fill="#0074FD"/>
<path d="M844.52 547.247C961.466 535.85 1062.69 509.428 1117.95 469.792C1175.4 428.592 1193.5 379.168 1136.42 337.9C1080.39 297.389 960.933 276.217 839.351 268.376C725.494 261.034 609.9 271.46 519.813 298.136C429.73 324.811 378.307 364.172 372.261 406.688C365.709 452.763 389.225 502.32 486.653 531.318C584.981 560.583 722.309 559.158 844.52 547.247Z" fill="#8707FF"/>
<path d="M840.473 450.499C945.952 472.842 1028.29 508.649 1041.66 551.697C1054.82 594.078 995.963 634.78 906.652 663.607C823.282 690.517 709.493 698.922 596.807 695.284C482.504 691.593 366.874 677.816 303.592 644.137C239.547 610.052 246.443 566.748 282.265 527.884C318.733 488.321 385.425 451.249 495.445 435.997C608.816 420.28 736.083 428.387 840.473 450.499Z" fill="#7D92FF"/>
<path d="M311.11 255.821C384.997 284.808 458.184 323.822 480.548 389.883C503.715 458.318 475.814 531.306 423.216 586.974C371.801 641.391 294.377 672.274 211.882 674.231C128.292 676.215 42.7604 652.996 -8.36762 597.216C-57.811 543.274 -51.521 471.041 -35.6277 404.203C-19.5103 336.423 5.3207 263.424 78.4455 232.131C151.731 200.769 236.597 226.588 311.11 255.821Z" fill="#6000DB"/>
</g>
</g>
</g>
<path d="M443.8 296.1H402.8V415H369V296.1H328V269.3H443.8V296.1ZM498.242 350.7C498.242 348.233 497.909 345.833 497.242 343.5C496.642 341.167 495.609 339.1 494.142 337.3C492.742 335.433 490.876 333.933 488.542 332.8C486.209 331.667 483.376 331.1 480.042 331.1C474.176 331.1 469.576 332.8 466.242 336.2C462.909 339.533 460.709 344.367 459.642 350.7H498.242ZM459.242 368.7C460.242 377.367 462.876 383.667 467.142 387.6C471.409 391.467 476.909 393.4 483.642 393.4C487.242 393.4 490.342 392.967 492.942 392.1C495.542 391.233 497.842 390.267 499.842 389.2C501.909 388.133 503.776 387.167 505.442 386.3C507.176 385.433 508.976 385 510.842 385C513.309 385 515.176 385.9 516.442 387.7L525.442 398.8C522.242 402.467 518.776 405.467 515.042 407.8C511.376 410.067 507.576 411.867 503.642 413.2C499.776 414.467 495.876 415.333 491.942 415.8C488.076 416.333 484.376 416.6 480.842 416.6C473.576 416.6 466.742 415.433 460.342 413.1C454.009 410.7 448.442 407.167 443.642 402.5C438.909 397.833 435.142 392.033 432.342 385.1C429.609 378.167 428.242 370.1 428.242 360.9C428.242 353.967 429.409 347.4 431.742 341.2C434.142 335 437.542 329.567 441.942 324.9C446.409 320.233 451.776 316.533 458.042 313.8C464.376 311.067 471.509 309.7 479.442 309.7C486.309 309.7 492.576 310.767 498.242 312.9C503.976 315.033 508.876 318.133 512.942 322.2C517.076 326.267 520.276 331.267 522.542 337.2C524.876 343.067 526.042 349.733 526.042 357.2C526.042 359.533 525.942 361.433 525.742 362.9C525.542 364.367 525.176 365.533 524.642 366.4C524.109 367.267 523.376 367.867 522.442 368.2C521.576 368.533 520.442 368.7 519.042 368.7H459.242ZM617.755 335.9C616.821 337.033 615.921 337.933 615.055 338.6C614.188 339.267 612.955 339.6 611.355 339.6C609.821 339.6 608.421 339.233 607.155 338.5C605.955 337.767 604.588 336.967 603.055 336.1C601.521 335.167 599.721 334.333 597.655 333.6C595.588 332.867 593.021 332.5 589.955 332.5C586.155 332.5 582.855 333.2 580.055 334.6C577.321 336 575.055 338 573.255 340.6C571.455 343.2 570.121 346.4 569.255 350.2C568.388 353.933 567.955 358.167 567.955 362.9C567.955 372.833 569.855 380.467 573.655 385.8C577.521 391.133 582.821 393.8 589.555 393.8C593.155 393.8 595.988 393.367 598.055 392.5C600.188 391.567 601.988 390.567 603.455 389.5C604.921 388.367 606.255 387.333 607.455 386.4C608.721 385.467 610.288 385 612.155 385C614.621 385 616.488 385.9 617.755 387.7L626.755 398.8C623.555 402.467 620.188 405.467 616.655 407.8C613.121 410.067 609.488 411.867 605.755 413.2C602.088 414.467 598.388 415.333 594.655 415.8C590.921 416.333 587.288 416.6 583.755 416.6C577.421 416.6 571.355 415.4 565.555 413C559.821 410.6 554.755 407.133 550.355 402.6C546.021 398 542.555 392.367 539.955 385.7C537.421 379.033 536.155 371.433 536.155 362.9C536.155 355.433 537.255 348.467 539.455 342C541.721 335.467 545.021 329.833 549.355 325.1C553.755 320.3 559.155 316.533 565.555 313.8C572.021 311.067 579.488 309.7 587.955 309.7C596.088 309.7 603.221 311 609.355 313.6C615.488 316.2 621.021 320 625.955 325L617.755 335.9ZM669.82 320.4C673.554 317.2 677.587 314.633 681.92 312.7C686.32 310.7 691.554 309.7 697.62 309.7C703.287 309.7 708.287 310.7 712.62 312.7C717.02 314.633 720.72 317.367 723.72 320.9C726.72 324.367 728.987 328.533 730.52 333.4C732.054 338.2 732.82 343.433 732.82 349.1V415H701.82V349.1C701.82 344.033 700.654 340.1 698.32 337.3C695.987 334.433 692.554 333 688.02 333C684.62 333 681.42 333.733 678.42 335.2C675.487 336.6 672.62 338.533 669.82 341V415H638.82V265.3H669.82V320.4ZM883.272 298.9C882.272 300.5 881.205 301.7 880.072 302.5C879.005 303.3 877.605 303.7 875.872 303.7C874.339 303.7 872.672 303.233 870.872 302.3C869.139 301.3 867.139 300.2 864.872 299C862.672 297.8 860.139 296.733 857.272 295.8C854.405 294.8 851.139 294.3 847.472 294.3C841.139 294.3 836.405 295.667 833.272 298.4C830.205 301.067 828.672 304.7 828.672 309.3C828.672 312.233 829.605 314.667 831.472 316.6C833.339 318.533 835.772 320.2 838.772 321.6C841.839 323 845.305 324.3 849.172 325.5C853.105 326.633 857.105 327.933 861.172 329.4C865.239 330.8 869.205 332.467 873.072 334.4C877.005 336.333 880.472 338.8 883.472 341.8C886.539 344.8 889.005 348.467 890.872 352.8C892.739 357.067 893.672 362.233 893.672 368.3C893.672 375.033 892.505 381.333 890.172 387.2C887.839 393.067 884.439 398.2 879.972 402.6C875.572 406.933 870.105 410.367 863.572 412.9C857.105 415.367 849.739 416.6 841.472 416.6C836.939 416.6 832.305 416.133 827.572 415.2C822.905 414.267 818.372 412.967 813.972 411.3C809.572 409.567 805.439 407.533 801.572 405.2C797.705 402.867 794.339 400.267 791.472 397.4L801.472 381.6C802.272 380.467 803.305 379.533 804.572 378.8C805.905 378 807.339 377.6 808.872 377.6C810.872 377.6 812.872 378.233 814.872 379.5C816.939 380.767 819.239 382.167 821.772 383.7C824.372 385.233 827.339 386.633 830.672 387.9C834.005 389.167 837.939 389.8 842.472 389.8C848.605 389.8 853.372 388.467 856.772 385.8C860.172 383.067 861.872 378.767 861.872 372.9C861.872 369.5 860.939 366.733 859.072 364.6C857.205 362.467 854.739 360.7 851.672 359.3C848.672 357.9 845.239 356.667 841.372 355.6C837.505 354.533 833.539 353.367 829.472 352.1C825.405 350.767 821.439 349.167 817.572 347.3C813.705 345.367 810.239 342.867 807.172 339.8C804.172 336.667 801.739 332.8 799.872 328.2C798.005 323.533 797.072 317.8 797.072 311C797.072 305.533 798.172 300.2 800.372 295C802.572 289.8 805.805 285.167 810.072 281.1C814.339 277.033 819.572 273.8 825.772 271.4C831.972 268.933 839.072 267.7 847.072 267.7C851.539 267.7 855.872 268.067 860.072 268.8C864.339 269.467 868.372 270.5 872.172 271.9C875.972 273.233 879.505 274.867 882.772 276.8C886.105 278.667 889.072 280.8 891.672 283.2L883.272 298.9ZM942.522 416.6C937.589 416.6 933.222 415.9 929.422 414.5C925.689 413.033 922.522 411 919.922 408.4C917.389 405.733 915.455 402.533 914.122 398.8C912.789 395.067 912.122 390.9 912.122 386.3V332.7H903.322C901.722 332.7 900.355 332.2 899.222 331.2C898.089 330.133 897.522 328.6 897.522 326.6V314.5L914.022 311.3L920.122 286C920.922 282.8 923.189 281.2 926.922 281.2H943.122V311.5H968.822V332.7H943.122V384.2C943.122 386.6 943.689 388.6 944.822 390.2C946.022 391.733 947.722 392.5 949.922 392.5C951.055 392.5 951.989 392.4 952.722 392.2C953.522 391.933 954.189 391.667 954.722 391.4C955.322 391.067 955.855 390.8 956.322 390.6C956.855 390.333 957.455 390.2 958.122 390.2C959.055 390.2 959.789 390.433 960.322 390.9C960.922 391.3 961.522 391.967 962.122 392.9L971.522 407.6C967.522 410.6 963.022 412.867 958.022 414.4C953.022 415.867 947.855 416.6 942.522 416.6ZM1035.68 372.8C1029.48 373.067 1024.38 373.6 1020.38 374.4C1016.38 375.2 1013.21 376.2 1010.88 377.4C1008.55 378.6 1006.91 379.967 1005.98 381.5C1005.11 383.033 1004.68 384.7 1004.68 386.5C1004.68 390.033 1005.65 392.533 1007.58 394C1009.51 395.4 1012.35 396.1 1016.08 396.1C1020.08 396.1 1023.58 395.4 1026.58 394C1029.58 392.6 1032.61 390.333 1035.68 387.2V372.8ZM979.88 325.7C986.146 320.167 993.08 316.067 1000.68 313.4C1008.35 310.667 1016.55 309.3 1025.28 309.3C1031.55 309.3 1037.18 310.333 1042.18 312.4C1047.25 314.4 1051.51 317.233 1054.98 320.9C1058.51 324.5 1061.21 328.8 1063.08 333.8C1064.95 338.8 1065.88 344.267 1065.88 350.2V415H1051.68C1048.75 415 1046.51 414.6 1044.98 413.8C1043.51 413 1042.28 411.333 1041.28 408.8L1039.08 403.1C1036.48 405.3 1033.98 407.233 1031.58 408.9C1029.18 410.567 1026.68 412 1024.08 413.2C1021.55 414.333 1018.81 415.167 1015.88 415.7C1013.01 416.3 1009.81 416.6 1006.28 416.6C1001.55 416.6 997.246 416 993.38 414.8C989.513 413.533 986.213 411.7 983.48 409.3C980.813 406.9 978.746 403.933 977.28 400.4C975.813 396.8 975.08 392.667 975.08 388C975.08 384.267 976.013 380.5 977.88 376.7C979.746 372.833 982.98 369.333 987.58 366.2C992.18 363 998.38 360.333 1006.18 358.2C1013.98 356.067 1023.81 354.867 1035.68 354.6V350.2C1035.68 344.133 1034.41 339.767 1031.88 337.1C1029.41 334.367 1025.88 333 1021.28 333C1017.61 333 1014.61 333.4 1012.28 334.2C1009.95 335 1007.85 335.9 1005.98 336.9C1004.18 337.9 1002.41 338.8 1000.68 339.6C998.946 340.4 996.88 340.8 994.48 340.8C992.346 340.8 990.546 340.267 989.08 339.2C987.613 338.133 986.413 336.867 985.48 335.4L979.88 325.7ZM1161.9 335.9C1160.96 337.033 1160.06 337.933 1159.2 338.6C1158.33 339.267 1157.1 339.6 1155.5 339.6C1153.96 339.6 1152.56 339.233 1151.3 338.5C1150.1 337.767 1148.73 336.967 1147.2 336.1C1145.66 335.167 1143.86 334.333 1141.8 333.6C1139.73 332.867 1137.16 332.5 1134.1 332.5C1130.3 332.5 1127 333.2 1124.2 334.6C1121.46 336 1119.2 338 1117.4 340.6C1115.6 343.2 1114.26 346.4 1113.4 350.2C1112.53 353.933 1112.1 358.167 1112.1 362.9C1112.1 372.833 1114 380.467 1117.8 385.8C1121.66 391.133 1126.96 393.8 1133.7 393.8C1137.3 393.8 1140.13 393.367 1142.2 392.5C1144.33 391.567 1146.13 390.567 1147.6 389.5C1149.06 388.367 1150.4 387.333 1151.6 386.4C1152.86 385.467 1154.43 385 1156.3 385C1158.76 385 1160.63 385.9 1161.9 387.7L1170.9 398.8C1167.7 402.467 1164.33 405.467 1160.8 407.8C1157.26 410.067 1153.63 411.867 1149.9 413.2C1146.23 414.467 1142.53 415.333 1138.8 415.8C1135.06 416.333 1131.43 416.6 1127.9 416.6C1121.56 416.6 1115.5 415.4 1109.7 413C1103.96 410.6 1098.9 407.133 1094.5 402.6C1090.16 398 1086.7 392.367 1084.1 385.7C1081.56 379.033 1080.3 371.433 1080.3 362.9C1080.3 355.433 1081.4 348.467 1083.6 342C1085.86 335.467 1089.16 329.833 1093.5 325.1C1097.9 320.3 1103.3 316.533 1109.7 313.8C1116.16 311.067 1123.63 309.7 1132.1 309.7C1140.23 309.7 1147.36 311 1153.5 313.6C1159.63 316.2 1165.16 320 1170.1 325L1161.9 335.9ZM1213.96 265.3V349.2H1218.56C1220.49 349.2 1221.96 348.933 1222.96 348.4C1223.96 347.8 1224.96 346.833 1225.96 345.5L1245.56 316.3C1246.76 314.633 1248.13 313.4 1249.66 312.6C1251.19 311.733 1253.16 311.3 1255.56 311.3H1283.96L1257.16 348.2C1254.63 351.533 1251.63 354.267 1248.16 356.4C1249.69 357.533 1251.09 358.867 1252.36 360.4C1253.63 361.867 1254.83 363.533 1255.96 365.4L1285.16 415H1257.16C1254.83 415 1252.83 414.633 1251.16 413.9C1249.49 413.1 1248.09 411.733 1246.96 409.8L1227.36 373.1C1226.43 371.433 1225.46 370.367 1224.46 369.9C1223.46 369.367 1221.96 369.1 1219.96 369.1H1213.96V415H1182.96V265.3H1213.96Z" fill="white"/>
<defs>
<filter id="filter0_f_0_1" x="0" y="0" width="1602" height="690" filterUnits="userSpaceOnUse" color-interpolation-filters="sRGB">
<feFlood flood-opacity="0" result="BackgroundImageFix"/>
<feBlend mode="normal" in="SourceGraphic" in2="BackgroundImageFix" result="shape"/>
<feGaussianBlur stdDeviation="25" result="effect1_foregroundBlur_0_1"/>
</filter>
<filter id="filter1_f_0_1" x="-347.156" y="-305.652" width="2358.99" height="1301.74" filterUnits="userSpaceOnUse" color-interpolation-filters="sRGB">
<feFlood flood-opacity="0" result="BackgroundImageFix"/>
<feBlend mode="normal" in="SourceGraphic" in2="BackgroundImageFix" result="shape"/>
<feGaussianBlur stdDeviation="150" result="effect1_foregroundBlur_0_1"/>
</filter>
</defs>
</svg>
